<?xml version="1.0" standalone="no"?>
<!DOCTYPE svg PUBLIC "-//W3C//DTD SVG 20010904//EN"
 "http://www.w3.org/TR/2001/REC-SVG-20010904/DTD/svg10.dtd">
<svg version="1.0" xmlns="http://www.w3.org/2000/svg"
 width="501.000000pt" height="501.000000pt" viewBox="0 0 501.000000 501.000000"
 preserveAspectRatio="xMidYMid meet">
<metadata>
Created by potrace 1.14, written by Peter Selinger 2001-2017
</metadata>
<g transform="translate(0.000000,501.000000) scale(0.100000,-0.100000)"
fill="#000000" stroke="none">
<path d="M10 2500 l0 -2500 2500 0 2500 0 0 2500 0 2500 -2500 0 -2500 0 0
-2500z m4615 0 l0 -2115 -2115 0 -2115 0 -3 2105 c-1 1158 0 2111 3 2118 3 10
432 12 2117 10 l2113 -3 0 -2115z"/>
<path d="M470 2500 l0 -2040 2040 0 2040 0 0 2040 0 2040 -2040 0 -2040 0 0
-2040z m1490 1005 c0 -11 11 -15 40 -15 29 0 40 -4 40 -15 0 -8 4 -15 10 -15
19 0 50 -35 50 -57 0 -14 6 -23 15 -23 9 0 15 -9 15 -24 0 -13 7 -26 15 -30 8
-3 15 -17 15 -31 0 -14 5 -25 10 -25 6 0 10 -18 10 -40 0 -29 4 -40 15 -40 10
0 15 -10 15 -30 0 -20 5 -30 15 -30 9 0 15 -9 15 -24 0 -13 7 -26 15 -30 8 -3
15 -17 15 -31 0 -14 5 -25 10 -25 6 0 10 -13 10 -29 0 -20 6 -30 20 -34 14 -3
20 -14 20 -31 0 -14 5 -26 10 -26 6 0 10 -11 10 -25 0 -16 6 -25 15 -25 10 0
15 -10 15 -30 0 -20 5 -30 15 -30 11 0 15 -11 15 -40 0 -22 5 -40 10 -40 6 0
10 -7 10 -15 0 -8 7 -15 15 -15 10 0 15 -10 15 -30 0 -23 4 -30 20 -30 15 0
20 7 20 26 0 17 6 28 20 31 11 3 20 12 20 19 0 8 5 14 10 14 6 0 10 18 10 40
0 29 4 40 15 40 10 0 15 10 15 30 0 20 5 30 15 30 11 0 15 11 15 40 0 29 4 40
15 40 10 0 15 10 15 30 0 17 5 30 10 30 6 0 10 11 10 25 0 16 6 25 15 25 10 0
15 10 15 30 0 20 5 30 15 30 11 0 15 12 15 45 0 33 4 45 15 45 11 0 15 11 15
40 0 22 5 40 10 40 6 0 10 17 10 38 0 36 25 72 50 72 6 0 10 11 10 25 0 14 7
28 15 31 8 4 15 17 15 30 l0 24 245 0 c211 0 245 -2 245 -15 0 -9 9 -15 25
-15 l25 0 0 -120 0 -120 -35 0 c-26 0 -35 4 -36 18 -1 16 -2 16 -6 0 -3 -12
-14 -18 -34 -18 -19 0 -29 -5 -29 -15 0 -12 -13 -15 -55 -15 l-55 0 0 -295 c0
-256 -2 -295 -15 -295 -12 0 -15 -14 -15 -70 0 -56 3 -70 15 -70 13 0 15 -26
15 -170 0 -144 -2 -170 -15 -170 -8 0 -15 -7 -15 -15 0 -8 7 -15 15 -15 12 0
15 -16 15 -85 0 -69 3 -85 15 -85 8 0 15 -7 15 -15 0 -11 11 -15 40 -15 22 0
40 -4 40 -10 0 -5 16 -10 36 -10 29 0 44 -8 70 -35 33 -33 34 -35 34 -125 0
-53 -4 -90 -10 -90 -5 0 -10 -7 -10 -15 0 -12 -13 -15 -60 -15 -33 0 -60 -4
-60 -10 0 -6 -27 -10 -60 -10 -33 0 -60 4 -60 10 0 6 -77 10 -210 10 -180 0
-210 2 -210 15 0 8 -4 15 -10 15 -5 0 -19 8 -30 17 -16 14 -20 30 -20 80 0 49
3 63 15 63 9 0 15 9 15 25 0 14 7 28 15 31 8 4 15 12 15 20 0 10 12 14 40 14
22 0 40 5 40 10 0 6 14 10 30 10 20 0 30 5 30 15 0 8 7 15 15 15 13 0 15 38
15 280 0 180 4 280 10 280 6 0 10 53 10 140 0 87 -4 140 -10 140 -6 0 -10 30
-10 70 0 40 -4 70 -10 70 -5 0 -10 -7 -10 -15 0 -8 -7 -15 -15 -15 -10 0 -15
-10 -15 -30 0 -20 -5 -30 -15 -30 -9 0 -15 -9 -15 -25 0 -14 -4 -25 -10 -25
-5 0 -10 -13 -10 -30 0 -20 -5 -30 -15 -30 -8 0 -15 -7 -15 -15 0 -8 -7 -15
-15 -15 -11 0 -15 -11 -15 -40 0 -29 -4 -40 -15 -40 -11 0 -15 -11 -15 -40 0
-22 -4 -40 -10 -40 -5 0 -10 -7 -10 -15 0 -8 -7 -15 -15 -15 -10 0 -15 -10
-15 -30 0 -20 -5 -30 -15 -30 -9 0 -15 -9 -15 -25 0 -16 -6 -25 -15 -25 -10 0
-15 -10 -15 -26 0 -16 -11 -36 -25 -50 -14 -13 -25 -32 -25 -44 0 -11 -7 -20
-15 -20 -8 0 -15 -7 -15 -15 0 -11 -12 -15 -50 -15 -38 0 -50 4 -50 15 0 8 -7
15 -15 15 -8 0 -15 5 -15 11 0 14 -25 39 -39 39 -6 0 -11 14 -11 30 0 20 -5
30 -15 30 -8 0 -15 7 -15 15 0 8 -7 15 -15 15 -11 0 -15 11 -15 39 0 25 -5 41
-15 45 -8 3 -15 17 -15 31 0 14 -4 25 -10 25 -5 0 -10 11 -10 25 0 16 -6 25
-15 25 -10 0 -15 10 -15 30 0 20 -5 30 -15 30 -9 0 -15 9 -15 24 0 13 -7 26
-15 30 -8 3 -15 17 -15 31 0 14 -4 25 -10 25 -5 0 -10 14 -10 30 0 20 -5 30
-15 30 -9 0 -15 9 -15 25 0 16 -6 25 -15 25 -10 0 -15 10 -15 30 0 25 -4 30
-25 30 l-25 0 0 -155 c0 -97 -4 -155 -10 -155 -6 0 -10 -43 -10 -110 0 -67 4
-110 10 -110 6 0 10 -63 10 -170 0 -144 2 -170 15 -170 11 0 15 -11 15 -40 0
-29 4 -40 15 -40 8 0 15 -7 15 -15 0 -8 7 -15 15 -15 8 0 15 -7 15 -15 0 -12
13 -15 55 -15 30 0 55 -4 55 -9 0 -5 12 -11 28 -13 24 -3 27 -7 30 -45 2 -24
7 -43 13 -43 5 0 9 -30 9 -66 0 -64 -13 -94 -39 -94 -6 0 -11 -7 -11 -15 0
-13 -40 -15 -300 -15 -260 0 -300 2 -300 15 0 8 -7 15 -15 15 -12 0 -15 19
-15 110 0 91 3 110 15 110 8 0 15 7 15 15 0 8 7 15 15 15 8 0 15 5 15 10 0 6
11 10 25 10 16 0 25 6 25 15 0 8 5 15 10 15 6 0 19 9 30 20 19 19 20 33 20
240 0 189 2 220 15 220 13 0 15 50 15 390 0 377 -1 391 -20 410 -11 11 -31 20
-45 20 -16 0 -25 6 -25 15 0 12 -14 15 -70 15 l-70 0 0 40 c0 29 -4 40 -15 40
-12 0 -15 14 -15 65 0 51 3 65 15 65 8 0 15 7 15 15 0 10 10 15 30 15 20 0 30
5 30 15 0 13 24 15 160 15 136 0 160 -2 160 -15z"/>
</g>
</svg>
